<svg width="32" height="32" viewBox="0 0 32 32" fill="none" xmlns="http://www.w3.org/2000/svg">
<path fill-rule="evenodd" clip-rule="evenodd" d="M0 16C0 7.16347 7.16347 0 16 0C24.8365 0 32 7.16347 32 16C32 24.8365 24.8365 32 16 32C7.16347 32 0 24.8365 0 16ZM15.9769 11.7475C17.2769 11.7475 18.1539 12.3099 18.6539 12.7799L20.6079 10.8693C19.4078 9.75227 17.8462 9.06667 15.9769 9.06667C13.2691 9.06667 10.9306 10.6228 9.79207 12.8877C9.3228 13.8275 9.0536 14.8829 9.0536 16C9.0536 17.1171 9.3228 18.1725 9.79207 19.1123L12.0383 17.3713L9.79973 19.1123C10.9383 21.3772 13.2691 22.9333 15.9769 22.9333C17.8462 22.9333 19.4155 22.3171 20.5617 21.2539C21.8694 20.0445 22.6233 18.2649 22.6233 16.1541C22.6233 15.584 22.5771 15.168 22.4771 14.7366H15.9769V17.3096H19.7925C19.7155 17.9491 19.3001 18.912 18.377 19.5591C17.7923 19.9674 17.0077 20.2525 15.9769 20.2525C14.1461 20.2525 12.5922 19.0429 12.0383 17.3713C11.8921 16.9399 11.8075 16.4776 11.8075 16C11.8075 15.5224 11.8921 15.0601 12.0306 14.6287C12.5922 12.9571 14.1461 11.7475 15.9769 11.7475Z" fill="white"/>
</svg>
