<svg width="32" height="32" viewBox="0 0 32 32" fill="none" xmlns="http://www.w3.org/2000/svg">
<path fill-rule="evenodd" clip-rule="evenodd" d="M16 0C7.16347 0 0 7.16347 0 16C0 24.8365 7.16347 32 16 32C24.8365 32 32 24.8365 32 16C32 7.16347 24.8365 0 16 0ZM12.4822 7.5182C13.3924 7.4768 13.6833 7.46667 16.0008 7.46667H15.9981C18.3164 7.46667 18.6061 7.4768 19.5164 7.5182C20.4249 7.5598 21.0453 7.70367 21.5893 7.91467C22.1511 8.13247 22.6257 8.424 23.1004 8.89867C23.5751 9.373 23.8667 9.84907 24.0853 10.4103C24.2951 10.9529 24.4391 11.573 24.4818 12.4815C24.5227 13.3917 24.5333 13.6825 24.5333 16.0001C24.5333 18.3176 24.5227 18.6077 24.4818 19.518C24.4391 20.4261 24.2951 21.0463 24.0853 21.5891C23.8667 22.1502 23.5751 22.6263 23.1004 23.1006C22.6263 23.5753 22.1509 23.8675 21.5899 24.0855C21.0469 24.2965 20.4261 24.4403 19.5177 24.4819C18.6074 24.5234 18.3175 24.5335 15.9997 24.5335C13.6824 24.5335 13.3917 24.5234 12.4815 24.4819C11.5732 24.4403 10.9529 24.2965 10.41 24.0855C9.84907 23.8675 9.373 23.5753 8.89887 23.1006C8.42433 22.6263 8.1328 22.1502 7.91467 21.5889C7.7038 21.0463 7.56 20.4263 7.5182 19.5178C7.477 18.6076 7.46667 18.3176 7.46667 16.0001C7.46667 13.6825 7.47733 13.3915 7.51807 12.4813C7.55893 11.5732 7.70293 10.9529 7.91447 10.4101C8.13313 9.84907 8.42473 9.373 8.8994 8.89867C9.37373 8.4242 9.8498 8.1326 10.4111 7.91467C10.9537 7.70367 11.5737 7.5598 12.4822 7.5182Z" fill="white"/>
<path fill-rule="evenodd" clip-rule="evenodd" d="M15.2353 9.00457C15.3839 9.00437 15.5439 9.00444 15.7164 9.00451L16.0009 9.00457C18.2793 9.00457 18.5493 9.01277 19.4491 9.05364C20.2811 9.09171 20.7326 9.23071 21.0334 9.34751C21.4317 9.50217 21.7155 9.68711 22.0141 9.98577C22.3127 10.2844 22.4976 10.5689 22.6527 10.9671C22.7695 11.2676 22.9087 11.7191 22.9465 12.5511C22.9874 13.4507 22.9963 13.7209 22.9963 15.9982C22.9963 18.2756 22.9874 18.5458 22.9465 19.4454C22.9085 20.2774 22.7695 20.729 22.6527 21.0294C22.498 21.4276 22.3127 21.7112 22.0141 22.0097C21.7154 22.3084 21.4318 22.4933 21.0334 22.648C20.733 22.7653 20.2811 22.904 19.4491 22.942C18.5495 22.9829 18.2793 22.9918 16.0009 22.9918C13.7223 22.9918 13.4522 22.9829 12.5526 22.942C11.7206 22.9036 11.2691 22.7646 10.9681 22.6478C10.5699 22.4931 10.2854 22.3082 9.98672 22.0095C9.68805 21.7108 9.50319 21.4271 9.34812 21.0287C9.23132 20.7283 9.09212 20.2767 9.05425 19.4447C9.01339 18.5452 9.00519 18.2749 9.00519 15.9961C9.00519 13.7174 9.01339 13.4486 9.05425 12.549C9.09232 11.717 9.23132 11.2654 9.34812 10.9646C9.50279 10.5664 9.68805 10.282 9.98672 9.98331C10.2854 9.68464 10.5699 9.49971 10.9681 9.34471C11.2689 9.22737 11.7206 9.08871 12.5526 9.05044C13.3398 9.01491 13.6449 9.00424 15.2353 9.00244V9.00457ZM20.5559 10.4215C19.9906 10.4215 19.5319 10.8796 19.5319 11.4452C19.5319 12.0105 19.9906 12.4692 20.5559 12.4692C21.1213 12.4692 21.5799 12.0105 21.5799 11.4452C21.5799 10.8798 21.1213 10.4212 20.5559 10.4212V10.4215ZM11.6186 16.0002C11.6186 13.5802 13.5806 11.618 16.0007 11.618C18.4208 11.618 20.3824 13.5801 20.3824 16.0002C20.3824 18.4204 18.4209 20.3816 16.0009 20.3816C13.5807 20.3816 11.6186 18.4204 11.6186 16.0002Z" fill="white"/>
<path d="M16.0008 13.1555C17.5716 13.1555 18.8452 14.429 18.8452 16C18.8452 17.5709 17.5716 18.8445 16.0008 18.8445C14.4298 18.8445 13.1563 17.5709 13.1563 16C13.1563 14.429 14.4298 13.1555 16.0008 13.1555Z" fill="white"/>
</svg>
