<svg width="32" height="32" viewBox="0 0 32 32" fill="none" xmlns="http://www.w3.org/2000/svg">
<path fill-rule="evenodd" clip-rule="evenodd" d="M16 0C7.16347 0 0 7.16347 0 16C0 24.8365 7.16347 32 16 32C24.8365 32 32 24.8365 32 16C32 7.16347 24.8365 0 16 0ZM22.6677 10.4995C23.4021 10.7011 23.9804 11.2948 24.1767 12.0488C24.5333 13.4153 24.5333 16.2667 24.5333 16.2667C24.5333 16.2667 24.5333 19.1179 24.1767 20.4845C23.9804 21.2385 23.4021 21.8323 22.6677 22.0339C21.3369 22.4 16 22.4 16 22.4C16 22.4 10.6631 22.4 9.3322 22.0339C8.5978 21.8323 8.01947 21.2385 7.8232 20.4845C7.46667 19.1179 7.46667 16.2667 7.46667 16.2667C7.46667 16.2667 7.46667 13.4153 7.8232 12.0488C8.01947 11.2948 8.5978 10.7011 9.3322 10.4995C10.6631 10.1333 16 10.1333 16 10.1333C16 10.1333 21.3369 10.1333 22.6677 10.4995Z" fill="white"/>
<path d="M14.4 19.2V13.8667L18.6667 16.5334L14.4 19.2Z" fill="white"/>
</svg>
